<svg width="24" height="24" viewBox="0 0 24 24" fill="none" xmlns="http://www.w3.org/2000/svg">
<path d="M12 21C16.9706 21 21 16.9706 21 12C21 7.02944 16.9706 3 12 3C7.02944 3 3 7.02944 3 12C3 16.9706 7.02944 21 12 21Z" fill="#0668E1"/>
<path d="M16.5 10.5C16.5 10.5 15.5 8.5 12 8.5C8.5 8.5 7.5 10.5 7.5 10.5V13.5C7.5 13.5 8.5 15.5 12 15.5C15.5 15.5 16.5 13.5 16.5 13.5V10.5Z" fill="white"/>
<path d="M12 14C11.1716 14 10.5 13.3284 10.5 12.5C10.5 11.6716 11.1716 11 12 11C12.8284 11 13.5 11.6716 13.5 12.5C13.5 13.3284 12.8284 14 12 14Z" fill="#0668E1"/>
</svg>
